<svg width="31" height="31" viewBox="0 0 31 31" fill="none" xmlns="http://www.w3.org/2000/svg">
<path d="M15.2825 10.4998C12.5396 10.4998 10.3013 12.7476 10.3013 15.502C10.3013 18.2563 12.5396 20.5041 15.2825 20.5041C18.0253 20.5041 20.2636 18.2563 20.2636 15.502C20.2636 12.7476 18.0253 10.4998 15.2825 10.4998ZM30.2223 15.502C30.2223 13.4306 30.241 11.3779 30.1251 9.31027C30.0093 6.90865 29.4637 4.77721 27.7149 3.02102C25.9623 1.26108 23.8435 0.716964 21.452 0.600635C19.3892 0.484307 17.3452 0.503069 15.2862 0.503069C13.2235 0.503069 11.1794 0.484307 9.12042 0.600635C6.72885 0.716964 4.60633 1.26483 2.85749 3.02102C1.10492 4.78096 0.563079 6.90865 0.447238 9.31027C0.331396 11.3817 0.35008 13.4343 0.35008 15.502C0.35008 17.5696 0.331396 19.626 0.447238 21.6936C0.563079 24.0953 1.10866 26.2267 2.85749 27.9829C4.61007 29.7428 6.72885 30.2869 9.12042 30.4033C11.1832 30.5196 13.2272 30.5008 15.2862 30.5008C17.3489 30.5008 19.393 30.5196 21.452 30.4033C23.8435 30.2869 25.9661 29.7391 27.7149 27.9829C29.4675 26.2229 30.0093 24.0953 30.1251 21.6936C30.2447 19.626 30.2223 17.5734 30.2223 15.502ZM15.2825 23.1984C11.0412 23.1984 7.61822 19.7611 7.61822 15.502C7.61822 11.2428 11.0412 7.8055 15.2825 7.8055C19.5238 7.8055 22.9467 11.2428 22.9467 15.502C22.9467 19.7611 19.5238 23.1984 15.2825 23.1984ZM23.2606 9.28776C22.2703 9.28776 21.4706 8.48471 21.4706 7.49029C21.4706 6.49587 22.2703 5.69283 23.2606 5.69283C24.2508 5.69283 25.0505 6.49587 25.0505 7.49029C25.0508 7.72642 25.0047 7.96029 24.9149 8.1785C24.825 8.39671 24.6932 8.59498 24.5269 8.76195C24.3607 8.92892 24.1632 9.06131 23.9459 9.15154C23.7286 9.24176 23.4957 9.28805 23.2606 9.28776Z" fill="#593012"/>
</svg>
