<svg width="1434" height="1203" viewBox="0 0 1434 1203" fill="none" xmlns="http://www.w3.org/2000/svg">
<g clip-path="url(#clip0_1780_4)">
<rect width="1434" height="1203" fill="#9BBDF4"/>
<rect x="-6.23486" y="22.2949" width="1440" height="1299" fill="#9BBDF4"/>
<path d="M100.606 359.241C116.883 416.193 79.6193 475.644 16.3037 491.435C-47.0119 507.227 -111.037 473.039 -127.313 416.087C-143.59 359.135 -106.327 299.685 -43.0109 283.893C20.3047 268.101 84.3296 302.289 100.606 359.241Z" stroke="#F6EEE3" stroke-width="10"/>
<rect x="6.22535" y="3.59752" width="1000.79" height="615.932" transform="matrix(0.970276 -0.242 0.274793 0.961503 -596.804 212.262)" stroke="#FAF1E6" stroke-width="10"/>
<rect x="6.22535" y="3.59752" width="207.521" height="135.549" transform="matrix(0.970276 -0.242 0.274793 0.961503 238.889 251.237)" stroke="#FAF1E6" stroke-width="10"/>
<path d="M375.385 -22.7979C279.287 4.24735 102.363 116.196 163.446 347.63C224.529 579.063 441.837 587.762 542.855 563.182" stroke="#FAF1E6" stroke-width="10"/>
<line y1="-5" x2="617.333" y2="-5" transform="matrix(0.278377 0.960602 -0.969368 0.245157 -105.846 97.2285)" stroke="#FAF1E6" stroke-width="10"/>
<path d="M243.089 253.176C230.093 257.033 201.492 279.13 216.447 331.458C231.716 384.886 263.477 389.519 280.819 385.194" stroke="#FAF1E6" stroke-width="10"/>
<path d="M-0.235352 613.702C0.394653 613.629 0.470706 613.002 1.21281 613.279C1.99469 613.572 2.7956 614.12 3.4454 614.604C16.4076 624.252 28.5694 634.975 41.0373 645.156" stroke="#FAF1E6" stroke-width="7" stroke-linecap="round"/>
<path d="M30.1761 602.541C30.1761 603.275 30.1549 603.907 29.9347 604.627C25.3825 619.511 17.4283 633.947 11.1689 648.2" stroke="#FAF1E6" stroke-width="7" stroke-linecap="round"/>
<path d="M45.7646 611.764C54.6334 603.94 62.5101 595.524 66.6275 584.592C68.2138 580.381 70.5299 576.454 72.34 572.321C74.3509 567.729 74.262 562.582 75.8447 557.936C78.8634 549.073 80.1787 538.456 81.0052 529.191C81.6196 522.303 81.9948 513.8 80.1497 507.097C78.4611 500.962 78.0524 493.4 78.0524 487.04C78.0524 484.371 77.9169 482.6 75.5687 485.107C73.1494 487.69 67.8647 496.758 70.1599 494.078C71.6596 492.327 75.3565 484.153 77.3073 484.153C80.6554 484.153 88.9806 487.92 88.9806 491.578" stroke="#FAF1E6" stroke-width="7" stroke-linecap="round"/>
<path d="M174.467 66.1061C175.331 66.2069 174.964 67.8136 174.964 68.4263C174.964 74.8898 177.97 81.1827 181.118 87.0653C183.437 91.3973 189.937 92.0456 194.447 92.4533C205.003 93.4076 210.974 88.2479 214.454 79.7953C216.96 73.7085 215.409 61.6613 210.729 57.2893C199.257 46.572 176.951 50.6739 176.951 67.4982" stroke="#FAF1E6" stroke-width="7" stroke-linecap="round"/>
<path d="M157.082 100.91C158.865 102.391 151.974 115.743 151.617 116.688" stroke="#FAF1E6" stroke-width="7" stroke-linecap="round"/>
<path d="M147.644 138.033C147.864 145.447 149.922 153.028 151.121 160.307" stroke="#FAF1E6" stroke-width="7" stroke-linecap="round"/>
<path d="M156.585 186.756C157.288 187.632 157.411 188.664 157.578 189.721C158.423 195.045 162.345 200.937 164.532 205.782" stroke="#FAF1E6" stroke-width="7" stroke-linecap="round"/>
<path d="M179.931 236.873C183.802 243.702 192.798 249.379 199.801 252.65" stroke="#FAF1E6" stroke-width="7" stroke-linecap="round"/>
<path d="M198.807 267.037C206.75 267.037 214.736 267.53 222.65 267.965C224.245 268.053 222.608 265.77 221.271 263.479C217.623 257.231 217.564 248.606 215.199 241.979" stroke="#FAF1E6" stroke-width="7" stroke-linecap="round"/>
<path d="M350.011 78.082C351.313 78.2172 352.538 79.2597 353.587 79.9376C364.623 87.0755 375.116 94.9128 385.764 102.575" stroke="#FAF1E6" stroke-width="7" stroke-linecap="round"/>
<path d="M352.395 110.74C353.511 98.2256 366.301 84.2275 372.257 73.6289" stroke="#FAF1E6" stroke-width="7" stroke-linecap="round"/>
<path d="M191.425 318.914C192.064 318.498 218.116 295.389 218.116 295.389L239.488 279.338L256.8 267.547L285.787 248.794C285.787 248.794 301.573 238.484 307.961 232.722C313.579 227.654 318.581 223.45 323.299 217.502C343.861 191.584 360.384 163.374 369.406 131.474C370.14 128.877 371.817 125.928 373.307 123.739C373.81 123 374.308 118.648 375.173 121.973C375.63 123.732 378.173 133.011 377.052 127.531C376.596 125.305 376.799 120.578 373.88 121.099C370.186 121.758 367.705 124.043 364.219 124.665" stroke="#FAF1E6" stroke-width="7" stroke-linecap="round"/>
<path d="M1471.92 365.183C1471.08 366.373 1468.82 366.652 1467.43 366.923C1463.62 367.668 1460.58 370.099 1457.42 372.139C1449.59 377.207 1440.43 382.073 1433.73 388.492C1419.02 402.589 1408.49 420.856 1399.35 438.3C1396.36 443.995 1393.94 450.064 1392.53 456.265C1392.3 457.31 1392.06 462.951 1391.03 460.709C1389.91 458.249 1387.61 454.091 1384.41 453.505C1383.72 453.378 1385.88 459.19 1386.01 459.798C1386.77 463.244 1400.91 455.826 1402.06 453.71" stroke="#FAF1E6" stroke-width="8" stroke-linecap="round"/>
<path d="M1221.92 764.402C1233.34 773.968 1244.92 783.388 1256.51 792.788" stroke="#FAF1E6" stroke-width="8" stroke-linecap="round"/>
<path d="M1251.38 764.339C1245.07 775.892 1234.61 784.828 1228.28 796.414" stroke="#FAF1E6" stroke-width="8" stroke-linecap="round"/>
<path d="M1301.99 543.536C1301.54 544.155 1300.06 543.843 1299.21 544.27C1295.37 546.199 1294.05 546.772 1291.69 550.836C1288.2 556.838 1288.58 560.775 1291.05 566.549C1294.35 574.275 1314.33 576.346 1319.79 569.109C1323.92 563.624 1323.71 559.824 1323.77 553.177C1323.88 540.993 1307.73 540.324 1298.2 543.21" stroke="#FAF1E6" stroke-width="8" stroke-linecap="round"/>
<path d="M1319.99 592.607C1319.39 592.32 1320.27 595.887 1320.43 596.432C1322.61 603.503 1327.05 610.877 1331.96 616.601C1343.7 630.292 1359.9 643.652 1375.83 653.168C1382.6 657.21 1389.63 663.99 1396.43 667.232" stroke="#FAF1E6" stroke-width="8" stroke-linecap="round"/>
<path d="M1377.45 671.321C1382.64 673.08 1398.72 674.636 1402.52 672.017" stroke="#FAF1E6" stroke-width="8" stroke-linecap="round"/>
<path d="M1403.3 674.266C1406.33 668.715 1400.5 657.116 1399.23 652.301" stroke="#FAF1E6" stroke-width="8" stroke-linecap="round"/>
<path d="M1243.87 409.74C1244.85 410.767 1245.37 410.798 1246.55 411.621C1254.48 417.178 1263.96 420.752 1271.76 426.768C1276.34 430.296 1283.45 436.062 1289.33 437.436" stroke="#FAF1E6" stroke-width="8" stroke-linecap="round"/>
<path d="M1274.84 398.047C1274.11 409.68 1265.93 422.779 1261.7 433.983C1260.16 438.053 1256.39 444.326 1256.39 448.515" stroke="#FAF1E6" stroke-width="8" stroke-linecap="round"/>
<path d="M1295.92 410.356C1302.49 410.356 1308.04 397.463 1310.41 393.978C1319.74 380.292 1326.05 365.503 1333.77 350.998C1342.68 334.261 1347.88 314.484 1350.6 296.085C1353.95 273.48 1360.47 251.028 1365.76 228.795" stroke="#FAF1E6" stroke-width="8" stroke-linecap="round"/>
<path d="M1347.31 234.335C1355.17 234.052 1361.22 224.091 1368.39 221.41" stroke="#FAF1E6" stroke-width="8" stroke-linecap="round"/>
<path d="M1367.07 222.641C1369.99 227.548 1380.97 247.875 1383.54 247.875" stroke="#FAF1E6" stroke-width="8" stroke-linecap="round"/>
<path d="M1255.73 22.002C1235.88 57.2348 1248.7 96.3324 1262.83 130.665C1267.47 141.925 1273.74 151.454 1282.74 159.865" stroke="#FAF1E6" stroke-width="8" stroke-linecap="round"/>
<path d="M1259.69 160.48C1264.91 160.48 1283.86 171.819 1284.06 162.053C1284.26 152.449 1287.21 143.327 1284.72 134.016" stroke="#FAF1E6" stroke-width="8" stroke-linecap="round"/>
<path d="M1275 14.1662C1282.94 17.8085 1285.46 28.4165 1295.28 29.7918C1299.92 30.442 1303.6 29.3717 1307.64 27.173C1317.46 21.8192 1314.2 8.76838 1309.9 1.39942C1305.41 -6.28591 1294.91 -13.778 1285.75 -8.53027C1276.18 -3.04633 1269.4 7.32292 1277.1 16.9159" stroke="#FAF1E6" stroke-width="8" stroke-linecap="round"/>
<path d="M55.1675 1047.56C56.3467 1056.38 55.9022 1064.54 61.3465 1072.87C66.2865 1080.42 79.382 1082.74 87.8585 1080.52C102.468 1076.7 109.485 1067.61 109.485 1053.37C109.485 1039.43 103.679 1026.42 86.3496 1026.42C73.5305 1026.42 53.8743 1035.82 53.8743 1049.98" stroke="#FAF1E6" stroke-width="8" stroke-linecap="round"/>
<path d="M132.117 1082.6C138.869 1101.15 143.172 1124.09 139.158 1143.78C137.346 1152.67 134.035 1161.42 130.824 1169.92C127.356 1179.1 121.6 1187.09 114.694 1194.35C110.304 1198.96 106.043 1205.23 100.719 1208.85C96.3698 1211.8 93.6527 1217.68 90.7325 1210.46C89.6996 1207.91 89.4393 1205.31 89.4393 1202.61C89.4393 1200.61 89.7551 1206.69 89.08 1208.58C88.5286 1210.13 85.1844 1222.49 87.4994 1222.74C94.0424 1223.46 100.299 1222.74 106.898 1222.74" stroke="#FAF1E6" stroke-width="8" stroke-linecap="round"/>
<path d="M978.814 1026.16C990.069 1035.79 1000.51 1046.08 1011.15 1056.36" stroke="#FAF1E6" stroke-width="8" stroke-linecap="round"/>
<path d="M1004.68 1014.07C1004.68 1018.39 1001.13 1022.99 999.291 1026.56C993.919 1036.97 988.83 1047.54 982.694 1057.57" stroke="#FAF1E6" stroke-width="8" stroke-linecap="round"/>
<path d="M952.302 1048.51C953.237 1048.38 951.737 1047.72 951.584 1047.63C946.121 1044.73 940.353 1042.25 934.843 1039.41C925.205 1034.44 918.524 1028.8 910.199 1022.46C885.41 1003.59 868.195 977.908 853.511 951.72C849.709 944.94 844.551 936.307 843.057 928.631C842.326 924.874 840.192 932.889 839.788 934.336C839.073 936.899 838.596 947.388 839.106 939.773C839.225 937.994 837.901 930.407 839.788 929.37C844.666 926.689 856.533 933.669 860.48 937.357" stroke="#FAF1E6" stroke-width="8" stroke-linecap="round"/>
<path d="M468.964 856.641C468.828 857.776 467.59 858.51 466.628 859.057C459.258 863.248 452.17 867.707 445.038 872.347" stroke="#FAF1E6" stroke-width="8" stroke-linecap="round"/>
<path d="M407.534 899.529C401.415 908.706 393.187 916.882 386.195 925.505" stroke="#FAF1E6" stroke-width="8" stroke-linecap="round"/>
<path d="M355.803 967.186C354.504 976.043 351.107 984.115 348.043 992.557" stroke="#FAF1E6" stroke-width="8" stroke-linecap="round"/>
<path d="M337.051 1035.45V1036.66" stroke="#FAF1E6" stroke-width="8" stroke-linecap="round"/>
<path d="M335.757 1040.88L336.404 1042.09" stroke="#FAF1E6" stroke-width="8" stroke-linecap="round"/>
<path d="M336.404 1046.32C337.05 1056.11 338.344 1066.13 338.344 1075.92" stroke="#FAF1E6" stroke-width="8" stroke-linecap="round"/>
<path d="M335.757 1106.12C336.964 1107.81 336.403 1110.98 336.62 1112.87C337.644 1121.8 340.284 1130.96 340.284 1139.95" stroke="#FAF1E6" stroke-width="8" stroke-linecap="round"/>
<path d="M324.765 1135.72C330.723 1135.72 333.014 1140.27 336.656 1144.28C341.029 1149.1 341.088 1148.18 343.266 1144.11C345.47 1139.99 347.784 1135.24 349.337 1130.89" stroke="#FAF1E6" stroke-width="8" stroke-linecap="round"/>
<path d="M1148.89 1060.37C1121.24 1104.65 1137.56 1162.09 1186 1188.48C1234.44 1214.88 1295.99 1199.87 1323.64 1155.59C1351.29 1111.31 1334.97 1053.88 1286.53 1027.48C1238.09 1001.08 1176.54 1016.09 1148.89 1060.37Z" stroke="#FAF1E6" stroke-width="10"/>
<rect x="-7.21373" y="1.11243" width="257.938" height="189.126" transform="matrix(-0.816832 -0.565925 -0.625913 0.788411 1504.35 1176.65)" stroke="#F6EEE3" stroke-width="10"/>
<path d="M1136.29 1063.4C1045.06 1192.86 1080.28 1339.3 1203.85 1415.29C1327.59 1491.38 1492.57 1467.8 1583.67 1338.51C1674.82 1209.15 1635.12 1058.56 1511.44 982.505C1387.84 906.504 1227.49 933.96 1136.29 1063.4Z" stroke="#FAF1E6" stroke-width="10"/>
<path d="M1320.97 1003.47C1323.04 1004.2 1324.62 1006.69 1326.01 1008.09C1328.07 1010.17 1330.01 1012.26 1331.94 1014.44C1333.44 1016.13 1334.95 1017.77 1336.41 1019.49C1338.03 1021.38 1339.7 1023.3 1341.39 1025.1" stroke="#FAF1E6" stroke-width="10" stroke-linecap="round"/>
<path d="M1338.62 999.958C1340.1 1001.5 1337.77 1002.76 1336.59 1004.1C1333.63 1007.45 1330.58 1010.74 1327.57 1014.04C1326.46 1015.26 1325.63 1016.67 1324.56 1017.9C1323.76 1018.82 1322.9 1019.67 1322.27 1020.68" stroke="#FAF1E6" stroke-width="10" stroke-linecap="round"/>
<path d="M1350.44 1012.61C1351 1012.7 1353.1 1011.78 1353.82 1011.72C1357.1 1011.44 1361.84 1012.79 1364.73 1014.36C1370.1 1017.29 1373.88 1020.54 1377.84 1025.08C1386.84 1035.39 1392.79 1051.32 1392.84 1064.65C1392.87 1071.43 1393.45 1077.81 1392.14 1084.58C1391.15 1089.71 1390.23 1094.81 1389.74 1099.99C1389.28 1104.98 1387.63 1109.57 1384.95 1113.87" stroke="#FAF1E6" stroke-width="10" stroke-linecap="round"/>
<path d="M1372.98 1110.97C1378.9 1114.19 1385.93 1116.01 1391.91 1119.27" stroke="#FAF1E6" stroke-width="10" stroke-linecap="round"/>
<path d="M1361.81 903.371C1368.51 907.543 1372.9 914.555 1379.39 919.005C1380.96 920.079 1382.37 921.558 1383.63 922.902" stroke="#FAF1E6" stroke-width="10" stroke-linecap="round"/>
<path d="M1377.72 895.144C1378.41 895.642 1366.43 913.332 1364.12 916.918C1363.32 918.155 1361.52 923.519 1359.78 923.179" stroke="#FAF1E6" stroke-width="10" stroke-linecap="round"/>
<path d="M1373.54 931.48C1372.79 931.301 1373.86 933.677 1373.98 933.955C1376.63 939.929 1381.88 944.807 1385.08 950.548C1387.95 955.696 1391.53 960.632 1393.98 965.971C1396.96 972.441 1399.25 979.332 1402.52 985.662C1405.02 990.49 1407.32 995.519 1409.43 1000.46C1410.54 1003.08 1410.56 1006.16 1411.88 1008.68" stroke="#FAF1E6" stroke-width="10" stroke-linecap="round"/>
<path d="M1400.47 1014.53C1401.5 1015.1 1404.05 1013.41 1405.17 1013.07C1408.34 1012.11 1411.42 1010.35 1414.61 1009.56C1416.55 1009.09 1418.42 1008.22 1420.15 1007.16" stroke="#FAF1E6" stroke-width="10" stroke-linecap="round"/>
<path d="M1420.85 1006.73C1421.19 1006.87 1421.55 1006.63 1421.86 1006.48" stroke="#FAF1E6" stroke-width="10" stroke-linecap="round"/>
<path d="M1413.14 1168.97C1408.57 1172.1 1405.25 1177.54 1402.09 1181.63C1389.43 1198.1 1377.24 1214.83 1365.5 1231.88C1364.02 1234.03 1362.12 1235.86 1360.73 1238.09" stroke="#FAF1E6" stroke-width="10" stroke-linecap="round"/>
<path d="M1150.24 1202.49C1157.5 1207.91 1163.81 1213.35 1169.99 1219.69C1171.93 1221.69 1174.55 1223.49 1175.84 1225.95" stroke="#FAF1E6" stroke-width="10" stroke-linecap="round"/>
<path d="M1169.37 1197.79C1169.83 1199.91 1165.72 1205.48 1165.06 1206.92C1162.99 1211.39 1160.03 1215.55 1158.23 1220.07C1156.9 1223.41 1155.67 1226.4 1153.75 1229.47" stroke="#FAF1E6" stroke-width="10" stroke-linecap="round"/>
<path d="M1156.66 1262.27C1178.6 1266.46 1199.06 1261.79 1219.26 1253.76C1228.71 1250.01 1238.25 1244.29 1246.79 1238.94C1257.79 1232.06 1270.1 1227.23 1281.55 1221.1C1291.52 1215.77 1301.41 1210.74 1311.55 1205.7C1316.58 1203.2 1321.64 1200.55 1326.8 1198.28C1330.54 1196.64 1334.74 1195.81 1338.08 1193.43C1341.21 1191.21 1341.73 1190.58 1336.53 1189.56C1334.44 1189.16 1330.88 1187.76 1335.14 1188.01C1339.65 1188.28 1342.11 1187.82 1340.78 1192.6C1339.65 1196.68 1337.78 1200 1335.53 1203.61" stroke="#FAF1E6" stroke-width="10" stroke-linecap="round"/>
<path d="M1267.33 808.668C1268.21 812.335 1275.79 819.033 1279.11 821.264C1283.52 824.236 1288.05 826.665 1292.37 829.361" stroke="#FAF1E6" stroke-width="3" stroke-linecap="round"/>
<path d="M1269.26 805.068C1269.67 808.495 1273.05 809.286 1274.56 811.816C1276.05 814.32 1278.68 816.452 1280.82 818.564C1282.52 820.253 1285.84 822.373 1288.04 823.513C1290.96 825.03 1293.21 827.522 1296.23 828.461" stroke="#FAF1E6" stroke-width="9" stroke-linecap="round"/>
<path d="M1319.34 835.66C1324.46 840.445 1330.72 841.185 1337.05 843.758C1339.96 844.94 1344.28 846.457 1347.27 846.457" stroke="#FAF1E6" stroke-width="9" stroke-linecap="round"/>
<path d="M1370.39 855.453C1375.4 859.197 1384.7 853.983 1390.13 856.803C1393.82 858.72 1399.88 858.152 1404.09 858.152" stroke="#FAF1E6" stroke-width="9" stroke-linecap="round"/>
<path d="M1425.28 859.052C1429.28 859.052 1432.88 858.152 1436.84 858.152" stroke="#FAF1E6" stroke-width="9" stroke-linecap="round"/>
<path d="M1407.7 837.105C1414.83 842.054 1421.89 847.115 1429.08 851.982C1430.27 852.784 1431.31 853.553 1432.18 854.669C1432.85 855.528 1432.92 855.81 1432.92 856.941C1432.92 859.553 1425.95 862.401 1423.7 863.45C1417.55 866.323 1413.9 873.606 1407.7 875.538" stroke="#FAF1E6" stroke-width="9" stroke-linecap="round"/>
<path d="M859.265 34.0915L878.765 19.1445" stroke="#F6EEE3" stroke-width="8" stroke-linecap="round" stroke-linejoin="round"/>
</g>
<defs>
<clipPath id="clip0_1780_4">
<rect width="1434" height="1203" fill="white"/>
</clipPath>
</defs>
</svg>
