<svg width="1184" height="787" viewBox="0 0 1184 787" fill="none" xmlns="http://www.w3.org/2000/svg">
<path d="M1179.16 67.3608C1178.7 66.9313 1144.41 67.3608 1144.41 67.3608H525.173V770.441C525.173 770.441 1175.48 768.938 1179.16 770.441C1182.84 771.944 1179.62 67.7903 1179.16 67.3608Z" fill="#784C2D" stroke="#784C2D"/>
<path d="M1181.54 64.8711C1179.4 63.5524 1091.6 64.1385 1048.27 65.1458C1055.9 100.53 1134.43 163.222 1183.03 176.958C1183.43 140.145 1183.69 66.1898 1181.54 64.8711Z" fill="#E0AA3E"/>
<path d="M1165.52 144.03V78.3655C1138.63 77.82 1084.86 77.0563 1084.86 78.3655C1088.35 92.2757 1140.65 141.575 1165.52 144.03Z" stroke="#B38F2C" stroke-width="20" stroke-linecap="round" stroke-linejoin="round"/>
<path d="M1160.45 137.782C1155.1 135.336 1142.32 128.865 1132.79 120.6" stroke="#E0C83E" stroke-width="4" stroke-linecap="round"/>
<path d="M1159.99 83.8906C1160.56 90.3957 1161 105.02 1160.89 118.03C1160.82 126.945 1160.72 134.049 1160.32 136.61" stroke="#E0CA3E" stroke-width="7" stroke-linecap="round"/>
<path d="M1182.03 772.683C1179.91 774.003 1093.31 773.416 1050.57 772.408C1058.1 736.99 1135.56 674.24 1183.5 660.491C1183.89 697.338 1184.15 771.363 1182.03 772.683Z" fill="#E0AA3E"/>
<path d="M1166.5 693.608V759.03C1139.77 759.573 1086.31 760.334 1086.31 759.03C1089.78 745.171 1141.78 696.054 1166.5 693.608Z" stroke="#B38F2C" stroke-width="20" stroke-linecap="round" stroke-linejoin="round"/>
<path d="M1160.97 753.738C1161.55 747.22 1161.99 732.566 1161.88 719.528C1161.81 710.595 1161.7 703.476 1161.31 700.911" stroke="#E0CA3E" stroke-width="7" stroke-linecap="round"/>
<path d="M1094.82 754.695C1100.87 755.275 1128.55 754.803 1140.66 754.695C1148.96 754.62 1155.57 754.517 1157.96 754.119" stroke="#E0CA3E" stroke-width="7" stroke-linecap="round"/>
<path d="M1167.17 687.764C1158.57 689.195 1112.56 706.017 1080.53 756.483" stroke="#E0CA3E" stroke-width="5" stroke-linecap="round" stroke-linejoin="round"/>
<path d="M1082.37 75.0918C1092.95 74.5576 1116.73 74.1481 1137.88 74.2479C1152.38 74.3162 1163.93 74.4118 1168.09 74.7778" stroke="#E0CA3E" stroke-width="5" stroke-linecap="round"/>
<path d="M5.37012 67.3608C5.83038 66.9313 40.1175 67.3608 40.1175 67.3608H659.356V770.441C659.356 770.441 9.05194 768.938 5.37012 770.441C1.68829 771.944 4.90991 67.7903 5.37012 67.3608Z" fill="#784C2D" stroke="#784C2D"/>
<path d="M2.98584 64.8711C5.13257 63.5524 92.93 64.1385 136.262 65.1458C128.629 100.53 50.0947 163.222 1.49506 176.958C1.0975 140.145 0.839111 66.1898 2.98584 64.8711Z" fill="#E0AA3E"/>
<path d="M19.0132 144.03V78.3655C45.8976 77.82 99.6665 77.0563 99.6665 78.3655C96.18 92.2757 43.8832 141.575 19.0132 144.03Z" stroke="#B38F2C" stroke-width="20" stroke-linecap="round" stroke-linejoin="round"/>
<path d="M24.0825 137.782C29.4272 135.336 42.2078 128.865 51.7351 120.6" stroke="#E0C83E" stroke-width="4" stroke-linecap="round"/>
<path d="M24.5435 83.8906C23.9702 90.3957 23.5308 105.02 23.6379 118.03C23.7112 126.945 23.8137 134.049 24.2065 136.61" stroke="#E0CA3E" stroke-width="7" stroke-linecap="round"/>
<path d="M2.50089 772.683C4.6183 774.003 91.2171 773.416 133.958 772.408C126.429 736.99 48.9666 674.24 1.03044 660.491C0.638321 697.338 0.383453 771.363 2.50089 772.683Z" fill="#E0AA3E"/>
<path d="M18.0253 693.608V759.03C44.7562 759.573 98.2178 760.334 98.2178 759.03C94.7512 745.171 42.7533 696.054 18.0253 693.608Z" stroke="#B38F2C" stroke-width="20" stroke-linecap="round" stroke-linejoin="round"/>
<path d="M23.5557 753.738C22.9824 747.22 22.543 732.566 22.6501 719.528C22.7234 710.595 22.8259 703.476 23.2187 700.911" stroke="#E0CA3E" stroke-width="7" stroke-linecap="round"/>
<path d="M89.7136 754.695C83.6588 755.275 55.9774 754.803 43.8673 754.695C35.5695 754.62 28.9569 754.517 26.5736 754.119" stroke="#E0CA3E" stroke-width="7" stroke-linecap="round"/>
<path d="M17.3563 687.764C25.9593 689.195 71.9701 706.017 104.001 756.483" stroke="#E0CA3E" stroke-width="5" stroke-linecap="round" stroke-linejoin="round"/>
<path d="M102.157 75.0918C91.5801 74.5576 67.8008 74.1481 46.6452 74.2479C32.1496 74.3162 20.598 74.4118 16.4345 74.7778" stroke="#E0CA3E" stroke-width="5" stroke-linecap="round"/>
<path d="M14.3341 761.942C103.029 761.05 279.864 759.611 280.418 758.695C281.109 757.548 394.552 754.11 407.465 753.728C420.245 753.35 557.264 754.282 559.168 758.561C559.174 758.601 559.18 758.64 559.186 758.678C559.185 758.684 559.184 758.689 559.183 758.695C559.193 758.742 559.202 758.787 559.21 758.83C559.359 759.747 559.421 759.893 559.21 758.83C559.202 758.782 559.194 758.731 559.186 758.678C559.191 758.639 559.185 758.6 559.168 758.561C558.709 755.596 557.705 746.844 560.336 742.076C573.248 742.076 414.382 731.952 341.29 739.21C268.197 746.469 26.324 747.806 24.71 747.806C23.0959 747.806 18.0233 756.975 14.3341 761.942Z" fill="black" fill-opacity="0.12"/>
<path d="M1095.51 31.1311L1159.8 95.2755V747.686C1079.11 747.256 887.432 744.884 845.637 739.016C814.408 734.632 611.069 732.145 564.812 754.691V31.2879C646.211 30.429 848.689 31.6315 1007.42 43.3124L1095.51 31.1311Z" fill="#E1CFBF"/>
<path d="M564.812 30.9208C599.43 -23.8783 792.381 21.1745 817.36 23.3692C842.34 25.5639 944.218 41.742 993.593 39.441C1060.07 36.3428 1095.28 31.3082 1095.28 31.3082V683.563C1095.28 683.563 1060.07 688.597 993.593 691.695C944.218 693.996 842.34 677.818 817.36 675.624C792.381 673.429 599.43 628.376 564.812 683.175V30.9208Z" fill="#F6EEE3" stroke="#F6EEE3"/>
<path d="M1159.8 747.505L1095.51 683.645V31.1309L1159.8 95.3719V747.505Z" fill="#EFE2D7"/>
<path d="M29.1217 684.57L103.413 746.178C184.107 745.749 244.793 744.882 286.588 739.014C317.817 734.63 515.043 723.291 561.299 745.837V44.0101C479.9 43.1513 288.36 58.9487 129.633 70.6297L29.1217 56.2635V684.57Z" fill="#E1CFBF"/>
<path d="M704.684 709.846C721.582 708.019 794.785 709.846 852.625 717.805C921.235 725.415 951.563 726.92 961.152 726.685C962.254 726.632 963.259 726.561 964.157 726.471C963.597 726.573 962.617 726.649 961.152 726.685C933.966 728.004 847.364 718.718 836.955 717.805C806.186 715.106 744.319 709.846 704.684 709.846Z" fill="#BBA795"/>
<path d="M983.283 713.505C924.291 710.994 892.26 708.601 877.051 707.371C905.165 709.67 934.2 711.969 968.074 713.505C978.956 713.998 1062.78 718.867 1089.05 710.378C1075.92 711.969 1074.77 716.037 983.283 713.505Z" fill="#BBA795"/>
<path d="M1036.74 737.614C977.753 735.104 974.987 734.254 950.561 734.254C983.744 735.282 975.448 735.492 1009.32 737.027C1020.2 737.52 1102.19 743.404 1135.37 739.383C1122.24 740.975 1052.1 739.383 1036.74 737.614Z" fill="#BBA795"/>
<path d="M625.183 728.064C627.103 725.706 634.723 721.45 643.387 721.167C652.834 720.858 652.288 719.742 688.391 723.1C698.156 723.83 705.456 724.663 706.758 724.881C699.752 724.18 693.678 723.592 688.391 723.1C666.345 721.455 631.73 720.342 625.183 728.064Z" fill="#BBA795"/>
<path d="M625.183 728.064C627.103 725.706 634.723 721.45 643.387 721.167C654.218 720.813 651.913 719.398 706.758 724.881C702.518 724.173 634.631 716.922 625.183 728.064Z" stroke="#BBA795" stroke-width="2" stroke-linecap="round"/>
<path d="M1109.79 366.56C1111.64 335.291 1110.56 204.496 1109.79 143.008C1111.02 203.553 1115.36 351.173 1114.17 366.56C1112.1 393.443 1109.79 485.941 1109.79 540.591C1105.42 512.293 1107.49 405.646 1109.79 366.56Z" fill="#E1D3C6"/>
<path d="M1146.23 545.72C1148.08 514.451 1147 383.657 1146.23 322.168C1147.46 382.713 1151.8 530.333 1150.61 545.72C1148.54 572.603 1142.37 659.796 1146.23 719.751C1138.83 686.148 1142.34 611.689 1146.23 545.72Z" fill="#E1D3C6"/>
<path d="M1136.48 448.978C1138.32 417.709 1139.37 349.346 1138.6 287.857C1139.83 348.403 1140.48 433.591 1139.29 448.978C1137.95 466.31 1132.62 500.267 1136.48 560.223C1129.08 526.62 1132.59 514.947 1136.48 448.978Z" fill="#E1D3C6"/>
<path d="M1107.03 687.032C1106.26 684.026 1104.68 676.067 1104.49 668.285C1104.28 659.442 1106.55 635.546 1106.96 625.692C1107 622.677 1107.03 621.442 1107.03 623.185C1107.03 623.861 1107.01 624.706 1106.96 625.692C1106.84 635.521 1106.57 664.263 1106.57 670.407C1106.57 674.298 1107.49 684.261 1107.03 687.032Z" fill="#E1CFBF"/>
<path d="M1116.72 595.864C1115.95 592.858 1114.37 584.899 1114.19 577.117C1113.98 568.274 1116.24 544.378 1116.66 534.524C1116.69 531.509 1116.72 530.274 1116.72 532.017C1116.72 532.693 1116.7 533.538 1116.66 534.524C1116.53 544.353 1116.26 573.095 1116.26 579.239C1116.26 583.13 1117.18 593.093 1116.72 595.864Z" fill="#E1CFBF"/>
<path d="M1124.56 241.698C1123.79 238.691 1122.67 206.063 1122.48 198.281C1122.27 189.438 1124.54 165.542 1124.95 155.688C1124.99 152.673 1125.02 151.438 1125.02 153.182C1125.02 153.857 1124.99 154.702 1124.95 155.688C1124.83 165.517 1124.56 194.259 1124.56 200.403C1124.56 204.294 1125.02 238.927 1124.56 241.698Z" fill="#E1CFBF"/>
<path d="M1123.17 384.246C1122.4 381.24 1121.28 348.612 1121.1 340.83C1120.89 331.987 1123.16 308.091 1123.57 298.237C1123.61 295.222 1123.63 293.986 1123.63 295.73C1123.63 296.406 1123.61 297.251 1123.57 298.237C1123.44 308.066 1123.17 336.808 1123.17 342.952C1123.17 346.843 1123.63 381.476 1123.17 384.246Z" fill="#E1CFBF"/>
<path d="M1143.67 244.881C1150.46 218.166 1145.51 178.381 1143.67 162.641C1148.12 177.025 1151.09 210.393 1149.43 224.542C1147.93 237.31 1140.52 269.088 1137.55 293.234C1137.29 296.831 1137.05 299.487 1136.75 300.769C1136.96 298.369 1137.23 295.846 1137.55 293.234C1138.37 281.944 1139.47 261.378 1143.67 244.881Z" fill="#E1D3C6"/>
<path d="M622.767 94.0176H674.957C675.058 285.359 677.221 663.376 677.261 666.87C677.261 666.87 677.261 666.87 677.262 666.87C677.262 666.903 677.261 666.903 677.261 666.87C670.577 665.986 630.545 667.401 611.356 668.639C611.356 658.555 610.531 662.825 610.531 653.909C607.789 596.77 615.709 476.654 622.41 400.41C627.771 339.415 625 168.611 622.767 94.0176Z" fill="#FAF1E6"/>
<path d="M1055.87 119.664L1095.05 115.596C1095.12 308.669 1095.28 693.931 1095.28 690.394C1091.41 690.96 1061.4 693.577 1046.88 694.815V683.143C1044.81 626.017 1050.8 495.847 1055.87 419.62C1059.93 358.638 1057.56 194.24 1055.87 119.664Z" fill="#FAF1E6"/>
<path d="M561.338 32.6858C526.673 -22.1002 333.453 22.9418 308.439 25.136C283.425 27.3302 181.404 43.5045 131.961 41.204C65.388 38.1066 30.1319 33.0732 30.1319 33.0732V685.172C30.1319 685.172 65.388 690.205 131.961 693.303C181.404 695.603 283.425 679.429 308.439 677.235C333.453 675.041 526.673 629.999 561.338 684.785V32.6858Z" fill="#F6EEE3" stroke="#F6EEE3"/>
<path d="M470.885 353.832C476.223 284.491 473.694 90.3199 471.47 5.52148H491.864L520.512 10.6311C520.612 228.124 525.417 652.767 525.506 656.747C525.507 656.747 525.507 656.747 525.508 656.747C525.508 656.784 525.507 656.784 525.506 656.747C518.848 655.742 478.985 657.35 459.877 658.757C459.877 647.294 459.055 652.148 459.055 642.012C456.325 577.056 464.211 440.507 470.885 353.832Z" fill="#F5E6D8"/>
<path d="M562.671 783.728C550.408 784.934 526.293 779.988 517.028 777.093C513.797 776.083 509.558 770.79 507.491 767.442C502.149 758.788 499.854 747.805 504.766 728.234C508.109 714.915 522.729 705.605 537.465 699.747C546.753 696.055 556.086 693.735 562.671 692.646C569.255 693.735 578.588 696.055 587.876 699.747C602.612 705.605 617.232 714.915 620.575 728.234C625.487 747.805 625.917 758.788 620.575 767.442C618.508 770.79 611.544 776.083 608.313 777.093C599.048 779.988 574.933 784.934 562.671 783.728Z" fill="#784C2D" stroke="#6A3D1D" stroke-width="5" stroke-linecap="round" stroke-linejoin="round"/>
<path d="M305.59 25.3824L372.901 14.0098C372.977 230.924 381.961 662.05 382.124 665.978C382.125 665.978 382.126 665.978 382.127 665.978C382.127 666.015 382.126 666.014 382.124 665.978C378.229 666.624 311.668 677.251 297.153 678.654C297.153 678.453 296.603 674.362 296.603 664.256C294.529 599.486 300.521 451.9 305.59 365.473C309.646 296.332 307.28 109.937 305.59 25.3824Z" fill="#FAF1E6"/>
<path d="M562.27 684.146V32.7053C554.336 20.0685 535.564 8.93886 491.863 5.55859L513.714 20.3472C515.17 21.1923 519.54 32.3842 519.54 38.0936C519.54 44.2007 515.17 424.171 515.17 623.302C515.17 625.372 516.627 637.668 507.401 646.541C505.122 648.733 487.979 658.068 487.979 658.372C538.477 660.062 559.348 679.008 562.27 684.146Z" fill="#E1CFBF"/>
<path d="M562.27 32.7061V684.147C559.349 679.009 537.992 664.711 513.228 660.908C511.772 660.908 524.396 660.063 525.853 659.64C530.709 659.64 532.84 659.521 537.822 657.694C539.667 657.017 542.666 654.839 543.358 651.984V41.2701C543.358 38.0348 541.512 29.4707 541.051 28.8998C540.704 28.4704 541.743 26.2354 529.288 18.4326C527.282 16.9153 512.541 8.62152 510.509 7.70363L510.315 7.67203C510.224 7.59255 510.298 7.60835 510.509 7.70363L518.084 8.93945L525.367 10.6296C527.31 11.897 554.336 20.0693 562.27 32.7061Z" fill="#C9B4A1"/>
<path d="M563.159 683.735L562.698 31.2904C571.685 16.995 594.268 8.03647 620.538 5.55859L613.164 7.65526L609.938 8.9895C609.938 8.9895 608.954 9.45352 608.325 9.75193C605.526 11.0787 603.025 13.1828 603.025 13.1828L599.798 15.4701L598.416 16.995C595.651 20.6165 595.42 25.7628 595.42 26.9065V39.1053L596.342 647.52C597.033 650.379 601.872 656.944 603.716 657.622C608.693 659.452 617.773 658.194 626.299 657.622C612.703 658.534 600.029 661.51 600.029 661.815C577.538 667.152 566.078 678.589 563.159 683.735Z" fill="#EFE2D7"/>
<path d="M563.159 683.735L562.698 31.2904C571.685 16.995 594.268 8.03647 620.538 5.55859L613.164 7.65526L609.938 8.9895C609.938 8.9895 608.954 9.45352 608.325 9.75193C605.526 11.0787 601.181 13.1828 601.181 13.1828L595.42 16.6137C582.976 24.4286 584.706 27.0482 584.359 27.4783C583.898 28.0501 582.055 36.6274 582.055 39.8677V651.523C582.746 654.382 585.742 656.563 587.585 657.241C592.563 659.071 617.773 658.194 626.299 657.622C612.703 658.534 600.029 661.51 600.029 661.815C577.538 667.152 566.078 678.589 563.159 683.735Z" fill="#E1CFBF"/>
<path d="M562.27 686.682V32.7628C552.353 18.4521 536.208 13.1094 525.367 10.6289C525.444 10.8197 533.532 14.1016 535.746 15.7808C548.201 23.6039 550.046 30.0914 550.969 31.2363C552.199 32.7628 554.198 39.2503 554.198 42.494V654.61C554.198 657.281 553.304 661.08 551.661 662.051C550.046 663.005 538.489 665.531 533.671 664.723C532.657 664.685 525.367 663.463 525.367 663.769C547.878 669.111 559.349 681.53 562.27 686.682Z" fill="#784C2D"/>
<path d="M647.729 6.40424C724.283 -2.23869 863.195 36.7876 965.261 38.3208C1052.82 39.636 1089.72 30.0536 1091.32 31.5567" stroke="#FAF9F8" stroke-width="10" stroke-linecap="round"/>
<path d="M379.698 15.6992C304.436 28.0121 270.861 38.516 168.78 38.516C83.505 38.516 34.6109 32.8704 33.0064 34.3809" stroke="#FAF9F8" stroke-width="10" stroke-linecap="round"/>
<path d="M619.566 745.886C618.17 711.614 578.69 702.424 561.626 700.318C556.6 699.447 533.471 707.402 524.396 713.528V731.334C548.363 722.336 560.23 723.293 561.626 722.527C563.023 721.761 601.184 724.825 619.566 745.886Z" fill="#6A3D1D" stroke="#6A3D1D" stroke-width="15" stroke-linecap="round"/>
<path d="M1170.2 761.942C1081.5 761.05 904.665 759.611 904.112 758.695C903.42 757.548 789.977 754.11 777.065 753.728C764.284 753.35 627.265 754.282 625.362 758.561C625.356 758.601 625.349 758.64 625.343 758.678C625.344 758.684 625.345 758.689 625.346 758.695C625.337 758.742 625.328 758.787 625.319 758.83C625.171 759.747 625.108 759.893 625.319 758.83C625.327 758.782 625.335 758.731 625.343 758.678C625.338 758.639 625.345 758.6 625.362 758.561C625.82 755.596 626.825 746.844 624.193 742.076C611.281 742.076 770.147 731.952 843.24 739.21C916.332 746.469 1158.21 747.806 1159.82 747.806C1161.43 747.806 1166.51 756.975 1170.2 761.942Z" fill="black" fill-opacity="0.12"/>
<path d="M758.438 681.414C717.663 676.974 622.297 665.731 605.3 689.872C602.06 694.474 600.974 699.77 601.13 699.388C614.1 667.493 709.554 681.414 758.438 681.414Z" fill="#BBA795"/>
<path d="M410.283 705.709C393.384 703.637 320.182 705.709 262.342 714.732C193.732 723.361 163.404 725.067 153.814 724.801C152.712 724.74 151.708 724.66 150.81 724.558C151.37 724.673 152.35 724.76 153.814 724.801C181 726.296 267.603 715.767 278.012 714.732C308.78 711.672 370.648 705.709 410.283 705.709Z" fill="#BBA795"/>
<path d="M154.703 709.925C200.912 706.996 226.002 704.205 237.915 702.77C215.894 705.452 193.15 708.134 166.616 709.925C158.092 710.5 92.4298 716.18 71.8525 706.277C82.1411 708.134 83.0436 712.879 154.703 709.925Z" fill="#BBA795"/>
<path d="M489.784 726.362C487.864 723.689 480.244 718.863 471.58 718.542C462.133 718.192 462.679 716.927 426.576 720.735C416.81 721.561 409.511 722.507 408.209 722.753C415.215 721.959 421.289 721.292 426.576 720.735C448.622 718.868 483.237 717.607 489.784 726.362Z" fill="#BBA795"/>
<path d="M489.784 726.362C487.864 723.689 480.244 718.863 471.58 718.542C460.749 718.141 463.053 716.537 408.209 722.753C412.449 721.951 480.336 713.729 489.784 726.362Z" stroke="#BBA795" stroke-width="2" stroke-linecap="round"/>
<path d="M356.53 681.414C397.305 676.974 492.67 665.731 509.667 689.872C512.907 694.474 513.993 699.77 513.838 699.388C500.867 667.493 405.413 681.414 356.53 681.414Z" fill="#BBA795"/>
</svg>
