<svg width="1481" height="1949" viewBox="0 0 1481 1949" fill="none" xmlns="http://www.w3.org/2000/svg">
<path d="M1471.01 159.314C1470.01 158.243 1395.61 159.314 1395.61 159.314H52V1912.41C52 1912.41 1463.02 1908.66 1471.01 1912.41C1479 1916.16 1472.01 160.385 1471.01 159.314Z" fill="#784C2D" stroke="#784C2D"/>
<path d="M1476.18 153.105C1471.52 149.817 1281.02 151.278 1187 153.79C1203.56 242.019 1373.96 398.338 1479.42 432.589C1480.28 340.797 1480.84 156.393 1476.18 153.105Z" fill="#E0AA3E"/>
<path d="M1441.41 350.483V186.752C1383.07 185.391 1266.41 183.487 1266.41 186.752C1273.97 221.436 1387.44 344.362 1441.41 350.483Z" stroke="#B38F2C" stroke-width="20" stroke-linecap="round" stroke-linejoin="round"/>
<path d="M1430.41 334.903C1418.81 328.805 1391.08 312.668 1370.41 292.059" stroke="#E0C83E" stroke-width="4" stroke-linecap="round"/>
<path d="M1429.41 200.529C1430.65 216.749 1431.6 253.214 1431.37 285.655C1431.21 307.884 1430.99 325.597 1430.14 331.982" stroke="#E0CA3E" stroke-width="7" stroke-linecap="round"/>
<path d="M1477.23 1918C1472.64 1921.29 1284.74 1919.83 1192 1917.31C1208.34 1829 1376.41 1672.54 1480.42 1638.25C1481.27 1730.13 1481.83 1914.71 1477.23 1918Z" fill="#E0AA3E"/>
<path d="M1443.55 1720.83V1883.96C1385.55 1885.31 1269.55 1887.21 1269.55 1883.96C1277.07 1849.4 1389.89 1726.93 1443.55 1720.83Z" stroke="#B38F2C" stroke-width="20" stroke-linecap="round" stroke-linejoin="round"/>
<path d="M1431.55 1870.76C1432.79 1854.51 1433.75 1817.97 1433.51 1785.46C1433.35 1763.19 1433.13 1745.44 1432.28 1739.04" stroke="#E0CA3E" stroke-width="7" stroke-linecap="round"/>
<path d="M1288 1873.15C1301.14 1874.6 1361.2 1873.42 1387.48 1873.15C1405.48 1872.96 1419.83 1872.71 1425 1871.71" stroke="#E0CA3E" stroke-width="7" stroke-linecap="round"/>
<path d="M1445 1706.26C1426.33 1709.83 1326.5 1751.77 1257 1877.6" stroke="#E0CA3E" stroke-width="5" stroke-linecap="round" stroke-linejoin="round"/>
<path d="M1261 178.59C1283.95 177.258 1335.55 176.237 1381.45 176.486C1412.9 176.656 1437.97 176.895 1447 177.807" stroke="#E0CA3E" stroke-width="5" stroke-linecap="round"/>
<path d="M1289.5 68.9703L1429 228.911V1855.66C1253.91 1854.59 838.013 1848.68 747.328 1834.05C679.568 1823.11 238.366 1816.91 138 1873.13V69.3614C314.617 67.2198 753.951 70.218 1098.35 99.3439L1289.5 68.9703Z" fill="#E1CFBF"/>
<path d="M138 68.4471C213.112 -68.1918 631.773 44.1451 685.973 49.6175C740.173 55.0899 961.228 95.4293 1068.36 89.6919C1212.61 81.9667 1289 69.4132 1289 69.4132V1695.78C1289 1695.78 1212.61 1708.33 1068.36 1716.06C961.228 1721.79 740.173 1681.45 685.973 1675.98C631.773 1670.51 213.112 1558.17 138 1694.81V68.4471Z" fill="#F6EEE3" stroke="#F6EEE3"/>
<path d="M1429 1855.21L1289.5 1695.98V68.9705L1429 229.153V1855.21Z" fill="#EFE2D7"/>
<path d="M133.274 1945.54C106.918 1948.54 55.085 1936.24 35.1718 1929.03C28.2276 1926.52 19.1154 1913.36 14.6729 1905.03C3.1912 1883.51 -1.74116 1856.19 8.81612 1807.51C16.0011 1774.39 47.4258 1751.23 79.0981 1736.66C99.0608 1727.48 119.122 1721.71 133.274 1719C147.426 1721.71 167.487 1727.48 187.45 1736.66C219.122 1751.23 250.547 1774.39 257.732 1807.51C268.289 1856.19 269.213 1883.51 257.732 1905.03C253.289 1913.36 238.32 1926.52 231.376 1929.03C211.463 1936.24 159.63 1948.54 133.274 1945.54Z" fill="#784C2D" stroke="#6A3D1D" stroke-width="5" stroke-linecap="round" stroke-linejoin="round"/>
<path d="M441.5 1751C478.167 1745.83 637 1751 762.5 1773.5C911.37 1795.01 977.175 1799.27 997.981 1798.6C1000.37 1798.45 1002.55 1798.25 1004.5 1798C1003.29 1798.29 1001.16 1798.5 997.981 1798.6C938.993 1802.33 751.084 1776.08 728.5 1773.5C661.739 1765.87 527.5 1751 441.5 1751Z" fill="#BBA795"/>
<path d="M1046 1761.34C918 1754.24 848.5 1747.48 815.5 1744C876.5 1750.5 939.5 1757 1013 1761.34C1036.61 1762.73 1218.5 1776.5 1275.5 1752.5C1247 1757 1244.5 1768.5 1046 1761.34Z" fill="#BBA795"/>
<path d="M1162 1829.5C1034 1822.4 1028 1820 975 1820C1047 1822.91 1029 1823.5 1102.5 1827.84C1126.11 1829.23 1304 1845.87 1376 1834.5C1347.5 1839 1195.31 1834.5 1162 1829.5Z" fill="#BBA795"/>
<path d="M269 1802.5C273.167 1795.83 289.7 1783.8 308.5 1783C328.998 1782.13 327.812 1778.97 406.148 1788.47C427.337 1790.53 443.176 1792.89 446 1793.5C430.798 1791.52 417.62 1789.86 406.148 1788.47C358.313 1783.81 283.207 1780.67 269 1802.5Z" fill="#BBA795" stroke="#BBA795" stroke-width="2" stroke-linecap="round"/>
<path d="M1320.5 780.5C1324.5 692.1 1322.17 322.333 1320.5 148.5C1323.17 319.667 1332.58 737 1330 780.5C1325.5 856.5 1320.5 1118 1320.5 1272.5C1311 1192.5 1315.5 891 1320.5 780.5Z" fill="#E1D3C6"/>
<path d="M1399.56 1287C1403.56 1198.6 1401.23 828.833 1399.56 655C1402.23 826.167 1411.64 1243.5 1409.06 1287C1404.56 1363 1391.18 1609.5 1399.56 1779C1383.5 1684 1391.12 1473.5 1399.56 1287Z" fill="#E1D3C6"/>
<path d="M1378.4 1013.5C1382.4 925.1 1384.67 731.833 1383 558C1385.67 729.167 1387.08 970 1384.5 1013.5C1381.6 1062.5 1370.02 1158.5 1378.4 1328C1362.34 1233 1369.96 1200 1378.4 1013.5Z" fill="#E1D3C6"/>
<path d="M1314.5 1686.5C1312.83 1678 1309.4 1655.5 1309 1633.5C1308.55 1608.5 1313.46 1540.94 1314.36 1513.09C1314.44 1504.56 1314.5 1501.07 1314.5 1506C1314.5 1507.91 1314.45 1510.3 1314.36 1513.09C1314.09 1540.87 1313.5 1622.13 1313.5 1639.5C1313.5 1650.5 1315.5 1678.67 1314.5 1686.5Z" fill="#E1CFBF"/>
<path d="M1335.53 1428.76C1333.86 1420.26 1330.43 1397.76 1330.03 1375.76C1329.58 1350.76 1334.49 1283.2 1335.39 1255.34C1335.47 1246.82 1335.53 1243.33 1335.53 1248.26C1335.53 1250.17 1335.48 1252.56 1335.39 1255.34C1335.12 1283.13 1334.53 1364.39 1334.53 1381.76C1334.53 1392.76 1336.53 1420.92 1335.53 1428.76Z" fill="#E1CFBF"/>
<path d="M1352.53 427.5C1350.86 419 1348.43 326.758 1348.03 304.758C1347.58 279.759 1352.49 212.202 1353.39 184.345C1353.47 175.82 1353.53 172.328 1353.53 177.258C1353.53 179.168 1353.48 181.558 1353.39 184.345C1353.12 212.131 1352.53 293.388 1352.53 310.758C1352.53 321.758 1353.53 419.667 1352.53 427.5Z" fill="#E1CFBF"/>
<path d="M1349.53 830.5C1347.86 822 1345.43 729.758 1345.03 707.758C1344.58 682.759 1349.49 615.202 1350.39 587.345C1350.47 578.82 1350.53 575.328 1350.53 580.258C1350.53 582.168 1350.48 584.558 1350.39 587.345C1350.12 615.131 1349.53 696.388 1349.53 713.758C1349.53 724.758 1350.53 822.667 1349.53 830.5Z" fill="#E1CFBF"/>
<path d="M1394 436.5C1408.74 360.974 1398 248.5 1394 204C1403.67 244.667 1410.1 339 1406.5 379C1403.25 415.095 1387.16 504.934 1380.72 573.198C1380.15 583.368 1379.64 590.875 1379 594.5C1379.44 587.716 1380.03 580.583 1380.72 573.198C1382.51 541.281 1384.9 483.139 1394 436.5Z" fill="#E1D3C6"/>
<path d="M263.758 10H377C377.218 550.936 381.912 1619.62 381.999 1629.5C381.999 1629.5 382 1629.5 382 1629.5C382 1629.59 382 1629.59 381.999 1629.5C367.495 1627 280.636 1631 239 1634.5C239 1605.99 237.209 1618.06 237.209 1592.86C231.261 1431.32 248.444 1091.74 262.984 876.196C274.616 703.757 268.605 220.881 263.758 10Z" fill="#FAF1E6"/>
<path d="M1203.5 82.5L1288.5 71C1288.67 616.833 1289 1706 1289 1696C1280.6 1697.6 1215.5 1705 1184 1708.5V1675.5C1179.5 1514 1192.5 1146 1203.5 930.5C1212.3 758.1 1207.17 293.333 1203.5 82.5Z" fill="#FAF1E6"/>
<path d="M132 1697V70.132C114.8 38.5737 71.5 20.228 52 15V39.7143L52 72.0331L52 1581.03C52.3334 1585.94 52 1596.72 52 1615.73V1641.87C100.8 1655.18 125.667 1684.17 132 1697Z" fill="#E1CFBF"/>
<path d="M132 1697V70.132C114.8 38.5737 71.5 20.228 52 15V28.783C52.1667 29.2583 55.7 30.3039 60.5 34.4863C87.5 53.9726 85.2479 59.5541 86 60.6264C87 62.0523 91 83.4397 91 91.5194V1616.68C89.5 1623.81 83 1629.25 79 1630.94C68.2 1635.5 61.5 1635.21 52 1633.31V1641.87C100.8 1655.18 125.667 1684.17 132 1697Z" fill="#C9B4A1"/>
<path d="M134 1697L133 70.161C152.5 34.516 201.5 12.1785 258.5 6L242.5 11.2279L235.5 14.5548C235.5 14.5548 233.366 15.7118 232 16.4559C225.927 19.7642 220.5 25.0107 220.5 25.0107L213.5 30.7139L210.5 34.516C204.5 43.5461 204 56.3783 204 59.2299V89.647L206 1606.7C207.5 1613.83 218 1630.2 222 1631.89C232.8 1636.45 252.5 1633.31 271 1631.89C241.5 1634.16 214 1641.58 214 1642.34C165.2 1655.65 140.333 1684.17 134 1697Z" fill="#EFE2D7"/>
<path d="M134 1697L133 70.161C152.5 34.516 201.5 12.1785 258.5 6L242.5 11.2279L235.5 14.5548C235.5 14.5548 233.366 15.7118 232 16.4559C225.927 19.7642 216.5 25.0107 216.5 25.0107L204 33.5655C177 53.0514 180.752 59.5834 180 60.6557C179 62.0815 175 83.4685 175 91.548V1616.68C176.5 1623.81 183 1629.25 187 1630.94C197.8 1635.5 252.5 1633.31 271 1631.89C241.5 1634.16 214 1641.58 214 1642.34C165.2 1655.65 140.333 1684.17 134 1697Z" fill="#E1CFBF"/>
<path d="M132 1700V70.1368C110.5 34.488 75.5 21.1791 52 15C52.1667 15.4753 69.7 23.6508 74.5 27.8336C101.5 47.3216 105.5 63.4824 107.5 66.3343C110.167 70.1368 114.5 86.2976 114.5 94.378V1619.2C114.5 1625.85 112.562 1635.31 109 1637.73C105.5 1640.11 79.5 1646.29 70 1644.39C70 1645.66 52 1641.25 52 1642.01C100.8 1655.32 125.667 1687.17 132 1700Z" fill="#784C2D"/>
<path d="M266 13.2616C432.106 -8.28914 785.013 83.8669 1006.47 87.6898C1196.45 90.9693 1276.52 67.0761 1280 70.824" stroke="#FAF9F8" stroke-width="15" stroke-linecap="round"/>
<path d="M256 1850C252.993 1765.14 167.952 1742.38 131.196 1737.16C120.369 1735.01 70.5477 1754.7 51 1769.88V1813.97C102.626 1791.68 128.188 1794.06 131.196 1792.16C134.203 1790.26 216.403 1797.85 256 1850Z" fill="#6A3D1D" stroke="#6A3D1D" stroke-width="15" stroke-linecap="round"/>
<path d="M1451 1891C1258.6 1888.78 875.01 1885.21 873.81 1882.93C872.31 1880.08 626.228 1871.54 598.219 1870.59C570.496 1869.65 273.274 1871.96 269.144 1882.6C269.131 1882.7 269.118 1882.8 269.105 1882.89C269.106 1882.9 269.108 1882.92 269.111 1882.93C269.09 1883.05 269.071 1883.16 269.052 1883.27C268.73 1885.55 268.594 1885.91 269.052 1883.27C269.069 1883.15 269.087 1883.02 269.105 1882.89C269.094 1882.79 269.107 1882.69 269.144 1882.6C270.138 1875.23 272.318 1853.48 266.61 1841.63C238.601 1841.63 583.214 1816.47 741.766 1834.51C900.319 1852.55 1424.99 1855.87 1428.49 1855.87C1431.99 1855.87 1443 1878.66 1451 1891Z" fill="black" fill-opacity="0.12"/>
</svg>
